# xmcd
#
# Track frame offsets:
#	150
#	17435
#	39382
#	58627
#	78127
#	105935
#	126117
#	143107
#	161735
#	189605
#	212160
#
# Disc length: 3025 seconds
#
# Revision: 0
# Processed by: cddbd v1.5PL3 Copyright (c) Steve Scherf et al.
# Submitted via: dBpowerAMP V4.0
#
DISCID=880bcf0b
DTITLE=Raging Arb and the Redheads - Raging Arb and the Redheads
DYEAR=1900
DGENRE=Country
TTITLE0=Casting Shadows
TTITLE1=Fools Gold
TTITLE2=Daze Gone By
TTITLE3=Cup O Joe
TTITLE4=Hang in the Balance
TTITLE5=Mud in Your Eye
TTITLE6=Virtue and Vice
TTITLE7=Up with the Jonses
TTITLE8=Pick up the Pieces
TTITLE9=The Strut
TTITLE10=Corn Licker
EXTD=
EXTT0=
EXTT1=
EXTT2=
EXTT3=
EXTT4=
EXTT5=
EXTT6=
EXTT7=
EXTT8=
EXTT9=
EXTT10=
PLAYORDER=
